<svg width="10em" height="10em" xmlns="http://www.w3.org/2000/svg" viewBox="0 0 100 100" preserveAspectRatio="xMidYMid">
    <style>rect { width: 6; height: 12; fill: #d4ecc9; }</style>
    <g transform="rotate(0 50 50)">
        <rect x="47" y="24" rx="9.4" ry="4.8" width="6" height="12">
            <animate attributeName="opacity" values="1;0" times="0;1" dur="1s" begin="-0.9166s"
                     repeatCount="indefinite"/>
        </rect>
    </g>
    <g transform="rotate(30 50 50)">
        <rect x="47" y="24" rx="9.4" ry="4.8" width="6" height="12">
            <animate attributeName="opacity" values="1;0" times="0;1" dur="1s" begin="-0.83334s"
                     repeatCount="indefinite"/>
        </rect>
    </g>
    <g transform="rotate(60 50 50)">
        <rect x="47" y="24" rx="9.4" ry="4.8" width="6" height="12">
            <animate attributeName="opacity" values="1;0" times="0;1" dur="1s" begin="-0.75s"
                     repeatCount="indefinite"/>
        </rect>
    </g>
    <g transform="rotate(90 50 50)">
        <rect x="47" y="24" rx="9.4" ry="4.8" width="6" height="12">
            <animate attributeName="opacity" values="1;0" times="0;1" dur="1s" begin="-0.6666s"
                     repeatCount="indefinite"/>
        </rect>
    </g>
    <g transform="rotate(120 50 50)">
        <rect x="47" y="24" rx="9.4" ry="4.8" width="6" height="12">
            <animate attributeName="opacity" values="1;0" times="0;1" dur="1s" begin="-0.58334s"
                     repeatCount="indefinite"/>
        </rect>
    </g>
    <g transform="rotate(150 50 50)">
        <rect x="47" y="24" rx="9.4" ry="4.8" width="6" height="12">
            <animate attributeName="opacity" values="1;0" times="0;1" dur="1s" begin="-0.5s"
                     repeatCount="indefinite"/>
        </rect>
    </g>
    <g transform="rotate(180 50 50)">
        <rect x="47" y="24" rx="9.4" ry="4.8" width="6" height="12">
            <animate attributeName="opacity" values="1;0" times="0;1" dur="1s" begin="-0.416667s"
                     repeatCount="indefinite"/>
        </rect>
    </g>
    <g transform="rotate(210 50 50)">
        <rect x="47" y="24" rx="9.4" ry="4.8" width="6" height="12">
            <animate attributeName="opacity" values="1;0" times="0;1" dur="1s" begin="-0.33333s"
                     repeatCount="indefinite"/>
        </rect>
    </g>
    <g transform="rotate(240 50 50)">
        <rect x="47" y="24" rx="9.4" ry="4.8" width="6" height="12">
            <animate attributeName="opacity" values="1;0" times="0;1" dur="1s" begin="-0.25s"
                     repeatCount="indefinite"/>
        </rect>
    </g>
    <g transform="rotate(270 50 50)">
        <rect x="47" y="24" rx="9.4" ry="4.8" width="6" height="12">
            <animate attributeName="opacity" values="1;0" times="0;1" dur="1s" begin="-0.16666s"
                     repeatCount="indefinite"/>
        </rect>
    </g>
    <g transform="rotate(300 50 50)">
        <rect x="47" y="24" rx="9.4" ry="4.8" width="6" height="12">
            <animate attributeName="opacity" values="1;0" times="0;1" dur="1s" begin="-0.083333s"
                     repeatCount="indefinite"/>
        </rect>
    </g>
    <g transform="rotate(330 50 50)">
        <rect x="47" y="24" rx="9.4" ry="4.8" width="6" height="12">
            <animate attributeName="opacity" values="1;0" times="0;1" dur="1s" begin="0s"
                     repeatCount="indefinite"/>
        </rect>
    </g>
</svg>
